Coordinates
version=1
nRows=7
nColumns=40
inDegrees=yes

Units are S.I. units (second, meters, Newtons, ...)
Angles are in degrees.

endheader
time	pelvis_tilt	pelvis_list	pelvis_rotation	pelvis_tx	pelvis_ty	pelvis_tz	hip_flexion_r	hip_adduction_r	hip_rotation_r	knee_angle_r	knee_angle_r_beta	ankle_angle_r	subtalar_angle_r	mtp_angle_r	hip_flexion_l	hip_adduction_l	hip_rotation_l	knee_angle_l	knee_angle_l_beta	ankle_angle_l	subtalar_angle_l	mtp_angle_l	lumbar_extension	lumbar_bending	lumbar_rotation	arm_flex_r	arm_add_r	arm_rot_r	elbow_flex_r	pro_sup_r	wrist_flex_r	wrist_dev_r	arm_flex_l	arm_add_l	arm_rot_l	elbow_flex_l	pro_sup_l	wrist_flex_l	wrist_dev_l
      7.79014286	     -4.13198338	     -4.12622750	    -10.62593838	      0.94839417	      0.92629560	      0.43835378	     24.76525369	     -0.79616530	     -8.83401573	     16.09551253	     16.09551253	      4.12059987	      8.69912579	      4.48194035	      4.74934292	     -3.33974186	    -13.34357305	     18.42937303	     18.42937303	     18.40832971	    -15.98214304	      0.78570907	     -9.77122028	      6.13886450	      2.35459469	    -18.87893694	    -11.62552382	    -14.85441478	     29.22521403	     47.13107584	      0.00000000	      0.00000000	     38.16074937	    -22.17355723	     -9.39756190	     76.88759046	     47.63278935	      0.00000000	      0.00000000
      7.81028571	     -4.34839248	     -3.98218443	    -10.89149638	      0.95021047	      0.92523368	      0.44243074	     24.59107357	     -0.48765207	     -8.86519496	     14.83873134	     14.83873134	      3.59022771	      9.88520544	      4.91154782	      3.94674164	     -3.32340642	    -13.77591880	     17.63308391	     17.63308391	     18.57902834	    -15.52066417	      0.54209323	     -9.54984900	      6.06265229	      2.49194134	    -19.30937681	    -11.18167418	    -14.79777356	     29.11148744	     47.11669119	      0.00000000	      0.00000000	     38.61029859	    -22.23316781	     -9.68634191	     77.50123712	     47.67082866	      0.00000000	      0.00000000
      7.83042857	     -4.51810346	     -3.84730845	    -11.09202654	      0.95226973	      0.92408754	      0.44660795	     24.53314638	     -0.26501236	     -8.97057730	     14.41681452	     14.41681452	      3.15108800	     10.63304954	      4.81369047	      3.12388009	     -3.32823661	    -14.21253479	     16.91492227	     16.91492227	     18.74681483	    -14.97262412	      0.17456652	     -9.43301037	      6.00751918	      2.65039785	    -19.53898408	    -10.78702543	    -14.75596600	     29.04387315	     47.10314000	      0.00000000	      0.00000000	     38.92041359	    -22.16161934	    -10.18542146	     78.26662769	     47.72420949	      0.00000000	      0.00000000
      7.85057143	     -4.68048347	     -3.79582749	    -11.22940298	      0.95459126	      0.92282699	      0.45089327	     24.50057397	      0.02476858	     -8.91574154	     14.48542718	     14.48542718	      2.26505578	     10.59597514	      2.66897988	      2.38176351	     -3.49150118	    -14.76273009	     16.41963568	     16.41963568	     18.70799662	    -14.36974959	     -0.96018465	     -9.36722020	      6.07948511	      2.49156343	    -19.36168035	    -10.55293663	    -14.75693750	     28.89225758	     47.07349734	      0.00000000	      0.00000000	     38.60890287	    -21.90744832	    -11.97941186	     79.86504643	     47.88391093	      0.00000000	      0.00000000
      7.87071429	     -4.87563609	     -3.70334256	    -11.28232433	      0.95711201	      0.92151412	      0.45527677	     24.53796874	      0.28763936	     -8.52492517	     14.90081629	     14.90081629	      1.17632790	      9.65711853	     -0.93396206	      1.73112362	     -3.59077682	    -14.96690932	     16.01320104	     16.01320104	     18.83316591	    -14.04407524	     -1.28530536	     -9.17474644	      6.12894879	      2.15098458	    -18.73653409	    -10.50054869	    -14.52106750	     28.13546338	     47.02371847	      0.00000000	      0.00000000	     38.16978150	    -22.04827623	    -13.00564486	     80.75197288	     47.98874201	      0.00000000	      0.00000000
      7.89085714	     -5.02908588	     -3.63750355	    -11.27019523	      0.95974963	      0.92042438	      0.45971396	     24.73404744	      0.48329483	     -8.17593761	     16.05172748	     16.05172748	      1.41165344	      8.67019427	     -1.57855622	      1.10555621	     -3.72851079	    -15.07054850	     15.75235186	     15.75235186	     19.03553450	    -13.74850459	     -1.26563906	     -9.07501746	      6.19997865	      2.29308004	    -18.58486258	    -10.40227966	    -14.48224269	     28.06157256	     47.01774960	      0.00000000	      0.00000000	     38.20680200	    -21.81791852	    -13.29021451	     81.03962408	     48.01480622	      0.00000000	      0.00000000
      7.91100000	     -5.21701880	     -3.58120417	    -11.21911546	      0.96243476	      0.91942997	      0.46431920	     24.96847684	      0.72719674	     -7.60599461	     17.33047942	     17.33047942	      1.69930236	      7.20319987	     -2.41737270	      0.59046801	     -3.93641213	    -15.18676995	     15.64100264	     15.64100264	     19.22705301	    -13.41305728	     -1.19903582	     -8.95164829	      6.24648692	      2.35855194	    -18.27643837	    -10.40584851	    -14.46800706	     27.97154676	     47.01567114	      0.00000000	      0.00000000	     38.04153713	    -21.48641357	    -13.81110274	     81.33247126	     48.05478233	      0.00000000	      0.00000000
